[h264 @ 0x5585f995dd80] Reinit context to 1280x720, pix_fmt: yuv420p
Input #0, mov,mp4,m4a,3gp,3g2,mj2, from '/var/www/html/project/media/video/original/WhatsApp_Video_2023-08-09_at_20.50.53.mp4':
  Metadata:
    major_brand     : mp42
    minor_version   : 0
    compatible_brands: mp42mp41
    creation_time   : 2023-08-09T16:11:30.000000Z
  Duration: 00:00:58.99, start: 0.000000, bitrate: 6315 kb/s
    Stream #0:0(eng): Video: h264 (Main), 1 reference frame (avc1 / 0x31637661), yuv420p(tv, bt709, left), 1280x720, 5994 kb/s, 25 fps, 25 tbr, 25k tbn, 50 tbc (default)
    Metadata:
      creation_time   : 2023-08-09T16:11:30.000000Z
      handler_name    : ?Mainconcept Video Media Handler
      encoder         : AVC Coding
    Stream #0:1(eng): Audio: aac (LC) (mp4a / 0x6134706D), 48000 Hz, stereo, fltp, 317 kb/s (default)
    Metadata:
      creation_time   : 2023-08-09T16:11:30.000000Z
      handler_name    : #Mainconcept MP4 Sound Media Handler
[h264 @ 0x5585f99a63c0] Reinit context to 1280x720, pix_fmt: yuv420p
Input #1, mov,mp4,m4a,3gp,3g2,mj2, from '/var/www/html/project/static/images/templates/Codino.mp4':
  Metadata:
    major_brand     : mp42
    minor_version   : 1
    compatible_brands: isommp41mp42
    creation_time   : 2021-07-11T07:02:58.000000Z
  Duration: 00:00:02.00, start: 0.000000, bitrate: 1007 kb/s
    Stream #1:0(ita): Audio: aac (LC) (mp4a / 0x6134706D), 44100 Hz, stereo, fltp, 102 kb/s (default)
    Metadata:
      creation_time   : 2021-07-11T07:02:58.000000Z
      handler_name    : Core Media Audio
    Stream #1:1(und): Video: h264 (High), 1 reference frame (avc1 / 0x31637661), yuv420p(tv, bt709, progressive, left), 1280x720 [SAR 1:1 DAR 16:9], 813 kb/s, 25 fps, 25 tbr, 25k tbn, 50k tbc (default)
    Metadata:
      creation_time   : 2021-07-11T07:02:58.000000Z
      handler_name    : Core Media Video
[Parsed_scale_0 @ 0x5585f9a5ea40] w:1280 h:720 flags:'bilinear' interl:0
[Parsed_scale_2 @ 0x5585f99be900] w:1280 h:720 flags:'bilinear' interl:0
Stream mapping:
  Stream #0:0 (h264) -> scale
  Stream #0:1 (aac) -> concat:in0:a0
  Stream #1:0 (aac) -> concat:in1:a0
  Stream #1:1 (h264) -> scale
  concat:out:v0 -> Stream #0:0 (libx264)
  concat:out:a0 -> Stream #0:1 (aac)
Press [q] to stop, [?] for help
[h264 @ 0x5585f9a5e240] Reinit context to 1280x720, pix_fmt: yuv420p
[h264 @ 0x5585f9dfb640] Reinit context to 1280x720, pix_fmt: yuv420p
[Parsed_scale_0 @ 0x5585fac0a840] w:1280 h:720 flags:'bilinear' interl:0
[Parsed_scale_2 @ 0x5585fac12a40] w:1280 h:720 flags:'bilinear' interl:0
[graph 0 input from stream 0:0 @ 0x5585fac15d40] w:1280 h:720 pixfmt:yuv420p tb:1/25000 fr:25/1 sar:0/1 sws_param:flags=2
[graph 0 input from stream 1:1 @ 0x5585fac16dc0] w:1280 h:720 pixfmt:yuv420p tb:1/25000 fr:25/1 sar:1/1 sws_param:flags=2
[graph_0_in_0_1 @ 0x5585fac17d80] tb:1/48000 samplefmt:fltp samplerate:48000 chlayout:0x3
[graph_0_in_1_0 @ 0x5585fac18ec0] tb:1/44100 samplefmt:fltp samplerate:44100 chlayout:0x3
[Parsed_concat_4 @ 0x5585fac13dc0] auto-inserting filter 'auto_resampler_0' between the filter 'graph_0_in_1_0' and the filter 'Parsed_concat_4'
[Parsed_scale_0 @ 0x5585fac0a840] w:1280 h:720 fmt:yuv420p sar:0/1 -> w:1280 h:720 fmt:yuv420p sar:0/1 flags:0x2
[Parsed_setsar_1 @ 0x5585fac12380] w:1280 h:720 sar:0/1 dar:16/9 -> sar:1/1 dar:16/9
[Parsed_scale_2 @ 0x5585fac12a40] w:1280 h:720 fmt:yuv420p sar:1/1 -> w:1280 h:720 fmt:yuv420p sar:1/1 flags:0x2
[Parsed_setsar_3 @ 0x5585fac12fc0] w:1280 h:720 sar:1/1 dar:16/9 -> sar:1/1 dar:16/9
[auto_resampler_0 @ 0x5585fac1bfc0] ch:2 chl:stereo fmt:fltp r:44100Hz -> ch:2 chl:stereo fmt:fltp r:48000Hz
[libx264 @ 0x5585f9a8f2c0] using SAR=1/1
[libx264 @ 0x5585f9a8f2c0] using cpu capabilities: MMX2 SSE2Fast SSSE3 SSE4.2 AVX FMA3 BMI2 AVX2
[libx264 @ 0x5585f9a8f2c0] profile High, level 3.1
[libx264 @ 0x5585f9a8f2c0] 264 - core 155 r2917 0a84d98 - H.264/MPEG-4 AVC codec - Copyleft 2003-2018 - http://www.videolan.org/x264.html - options: cabac=1 ref=1 deblock=1:0:0 analyse=0x3:0x113 me=hex subme=2 psy=1 psy_rd=1.00:0.00 mixed_ref=0 me_range=16 chroma_me=1 trellis=0 8x8dct=1 cqm=0 deadzone=21,11 fast_pskip=1 chroma_qp_offset=0 threads=22 lookahead_threads=5 sliced_threads=0 nr=0 decimate=1 interlaced=0 bluray_compat=0 constrained_intra=0 bframes=3 b_pyramid=2 b_adapt=1 b_bias=0 direct=1 weightb=1 open_gop=0 weightp=1 keyint=250 keyint_min=25 scenecut=40 intra_refresh=0 rc_lookahead=10 rc=crf mbtree=1 crf=18.0 qcomp=0.60 qpmin=0 qpmax=69 qpstep=4 ip_ratio=1.40 aq=1:1.00
Output #0, mp4, to '/var/www/html/project/media/video/watermarks/WhatsApp_Video_2023-08-09_at_20.50.53.mp4':
  Metadata:
    major_brand     : mp42
    minor_version   : 0
    compatible_brands: mp42mp41
    encoder         : Lavf58.29.100
    Stream #0:0: Video: h264 (libx264), 1 reference frame (avc1 / 0x31637661), yuv420p(progressive), 1280x720 [SAR 1:1 DAR 16:9], q=-1--1, 25 fps, 12800 tbn, 25 tbc (default)
    Metadata:
      encoder         : Lavc58.54.100 libx264
    Side data:
      cpb: bitrate max/min/avg: 0/0/0 buffer size: 0 vbv_delay: -1
    Stream #0:1: Audio: aac (LC) (mp4a / 0x6134706D), 48000 Hz, stereo, fltp, delay 1024, 128 kb/s (default)
    Metadata:
      encoder         : Lavc58.54.100 aac
[Parsed_concat_4 @ 0x5585fac13dc0] EOF on in0:v0, 1 streams left in segment.
[Parsed_concat_4 @ 0x5585fac13dc0] EOF on in0:a0, 0 streams left in segment.
[Parsed_concat_4 @ 0x5585fac13dc0] Segment finished at pts=59000027
[Parsed_concat_4 @ 0x5585fac13dc0] EOF on in1:v0, 1 streams left in segment.
[Parsed_concat_4 @ 0x5585fac13dc0] EOF on in1:a0, 0 streams left in segment.
[Parsed_concat_4 @ 0x5585fac13dc0] Segment finished at pts=61018714
No more output streams to write to, finishing.
frame= 1524 fps= 92 q=-1.0 Lsize=   65473kB time=00:01:01.03 bitrate=8787.7kbits/s speed=3.67x    
[AVIOContext @ 0x5585f995c180] Statistics: 0 seeks, 33 writeouts
video:64476kB audio:951kB subtitle:0kB other streams:0kB global headers:0kB muxing overhead: 0.071193%
Input file #0 (/var/www/html/project/media/video/original/WhatsApp_Video_2023-08-09_at_20.50.53.mp4):
  Input stream #0:0 (video): 1474 packets read (44178431 bytes); 1474 frames decoded; 
  Input stream #0:1 (audio): 2765 packets read (2339431 bytes); 2765 frames decoded (2831360 samples); 
  Total: 4239 packets (46517862 bytes) demuxed
Input file #1 (/var/www/html/project/static/images/templates/Codino.mp4):
  Input stream #1:0 (audio): 89 packets read (26579 bytes); 87 frames decoded (89024 samples); 
  Input stream #1:1 (video): 50 packets read (203365 bytes); 50 frames decoded; 
  Total: 139 packets (229944 bytes) demuxed
Output file #0 (/var/www/html/project/media/video/watermarks/WhatsApp_Video_2023-08-09_at_20.50.53.mp4):
  Output stream #0:0 (video): 1524 frames encoded; 1524 packets muxed (66023271 bytes); 
  Output stream #0:1 (audio): 2861 frames encoded (2928898 samples); 2862 packets muxed (973314 bytes); 
  Total: 4386 packets (66996585 bytes) muxed
[AVIOContext @ 0x5585f99a9f80] Statistics: 2 seeks, 259 writeouts
[libx264 @ 0x5585f9a8f2c0] frame I:11    Avg QP:15.06  size:210083
[libx264 @ 0x5585f9a8f2c0] frame P:411   Avg QP:19.13  size: 88434
[libx264 @ 0x5585f9a8f2c0] frame B:1102  Avg QP:23.17  size: 24832
[libx264 @ 0x5585f9a8f2c0] consecutive B-frames:  1.9%  3.7%  4.1% 90.3%
[libx264 @ 0x5585f9a8f2c0] mb I  I16..4: 17.2% 10.7% 72.1%
[libx264 @ 0x5585f9a8f2c0] mb P  I16..4:  3.6%  4.8%  3.2%  P16..4: 42.0% 15.3% 14.8%  0.0%  0.0%    skip:16.3%
[libx264 @ 0x5585f9a8f2c0] mb B  I16..4:  0.6%  0.7%  0.2%  B16..8: 22.4% 10.2%  3.8%  direct:22.2%  skip:39.9%  L0:29.9% L1:37.8% BI:32.3%
[libx264 @ 0x5585f9a8f2c0] 8x8 transform intra:37.8% inter:16.9%
[libx264 @ 0x5585f9a8f2c0] coded y,uvDC,uvAC intra: 61.7% 51.8% 18.6% inter: 37.0% 12.3% 1.1%
[libx264 @ 0x5585f9a8f2c0] i16 v,h,dc,p: 25% 35% 20% 19%
[libx264 @ 0x5585f9a8f2c0] i8 v,h,dc,ddl,ddr,vr,hd,vl,hu: 21% 43% 20%  3%  2%  2%  3%  2%  5%
[libx264 @ 0x5585f9a8f2c0] i4 v,h,dc,ddl,ddr,vr,hd,vl,hu: 28% 20% 17%  6%  5%  6%  6%  6%  7%
[libx264 @ 0x5585f9a8f2c0] i8c dc,h,v,p: 44% 30% 18%  9%
[libx264 @ 0x5585f9a8f2c0] Weighted P-Frames: Y:17.0% UV:0.5%
[libx264 @ 0x5585f9a8f2c0] kb/s:8664.38
[aac @ 0x5585f9a53ac0] Qavg: 971.041
[AVIOContext @ 0x5585f9965080] Statistics: 46550646 bytes read, 1 seeks
[AVIOContext @ 0x5585f9a6e5c0] Statistics: 1530915 bytes read, 42 seeks
